<mxfile host="app.diagrams.net" modified="2023-03-09T01:00:03.308Z" agent="5.0 (Windows NT 10.0; Win64; x64) AppleWebKit/537.36 (KHTML, like Gecko) Chrome/110.0.0.0 Safari/537.36" etag="Cfz-tdZSNyvFzeO1tPto" version="21.0.2" type="github">
  <diagram name="Page-1" id="c4acf3e9-155e-7222-9cf6-157b1a14988f">
    <mxGraphModel dx="1900" dy="619" grid="1" gridSize="10" guides="1" tooltips="1" connect="1" arrows="1" fold="1" page="1" pageScale="1" pageWidth="850" pageHeight="1100" background="none" math="0" shadow="0">
      <root>
        <mxCell id="0" />
        <mxCell id="1" parent="0" />
        <mxCell id="6C0aV0hPVjWZgqlC1LB1-13" style="edgeStyle=orthogonalEdgeStyle;rounded=0;orthogonalLoop=1;jettySize=auto;html=1;" edge="1" parent="1" source="Ele08riBsFVVtndWp5Yc-1" target="Ele08riBsFVVtndWp5Yc-11">
          <mxGeometry relative="1" as="geometry" />
        </mxCell>
        <mxCell id="6C0aV0hPVjWZgqlC1LB1-14" style="edgeStyle=orthogonalEdgeStyle;rounded=0;orthogonalLoop=1;jettySize=auto;html=1;" edge="1" parent="1" source="Ele08riBsFVVtndWp5Yc-1" target="6C0aV0hPVjWZgqlC1LB1-12">
          <mxGeometry relative="1" as="geometry">
            <mxPoint x="-70" y="380" as="targetPoint" />
          </mxGeometry>
        </mxCell>
        <mxCell id="Ele08riBsFVVtndWp5Yc-1" value="Cliente&lt;br&gt;" style="shape=umlActor;verticalLabelPosition=bottom;verticalAlign=top;html=1;outlineConnect=0;" parent="1" vertex="1">
          <mxGeometry x="-30" y="200" width="30" height="60" as="geometry" />
        </mxCell>
        <mxCell id="Ele08riBsFVVtndWp5Yc-11" value="Venda de Passagem" style="ellipse;whiteSpace=wrap;html=1;" parent="1" vertex="1">
          <mxGeometry x="260" y="190" width="120" height="80" as="geometry" />
        </mxCell>
        <object label="Voos" id="Ele08riBsFVVtndWp5Yc-26">
          <mxCell style="ellipse;whiteSpace=wrap;html=1;" parent="1" vertex="1">
            <mxGeometry x="60" y="10" width="120" height="80" as="geometry" />
          </mxCell>
        </object>
        <mxCell id="6C0aV0hPVjWZgqlC1LB1-3" style="edgeStyle=orthogonalEdgeStyle;rounded=0;orthogonalLoop=1;jettySize=auto;html=1;" edge="1" parent="1" source="6C0aV0hPVjWZgqlC1LB1-1">
          <mxGeometry relative="1" as="geometry">
            <mxPoint x="-130" y="500" as="targetPoint" />
          </mxGeometry>
        </mxCell>
        <mxCell id="6C0aV0hPVjWZgqlC1LB1-1" value="Actor" style="shape=umlActor;verticalLabelPosition=bottom;verticalAlign=top;html=1;outlineConnect=0;" vertex="1" parent="1">
          <mxGeometry x="-230" y="470" width="30" height="60" as="geometry" />
        </mxCell>
        <mxCell id="6C0aV0hPVjWZgqlC1LB1-4" value="&amp;lt;&amp;lt;include&amp;gt;&amp;gt;" style="html=1;verticalAlign=bottom;labelBackgroundColor=none;endArrow=open;endFill=0;dashed=1;rounded=0;" edge="1" parent="1" source="Ele08riBsFVVtndWp5Yc-11" target="Ele08riBsFVVtndWp5Yc-26">
          <mxGeometry width="160" relative="1" as="geometry">
            <mxPoint x="30" y="140" as="sourcePoint" />
            <mxPoint x="190" y="140" as="targetPoint" />
          </mxGeometry>
        </mxCell>
        <mxCell id="6C0aV0hPVjWZgqlC1LB1-5" value="Cadastrar Cliente" style="ellipse;whiteSpace=wrap;html=1;" vertex="1" parent="1">
          <mxGeometry x="200" y="380" width="120" height="80" as="geometry" />
        </mxCell>
        <mxCell id="6C0aV0hPVjWZgqlC1LB1-6" value="&amp;lt;&amp;lt;extend&amp;gt;&amp;gt;" style="edgeStyle=none;html=1;startArrow=open;endArrow=none;startSize=12;verticalAlign=bottom;dashed=1;labelBackgroundColor=none;rounded=0;" edge="1" parent="1" source="Ele08riBsFVVtndWp5Yc-11" target="6C0aV0hPVjWZgqlC1LB1-5">
          <mxGeometry width="160" relative="1" as="geometry">
            <mxPoint x="340" y="160" as="sourcePoint" />
            <mxPoint x="500" y="160" as="targetPoint" />
          </mxGeometry>
        </mxCell>
        <mxCell id="6C0aV0hPVjWZgqlC1LB1-7" value="Extends" style="endArrow=block;endSize=16;endFill=0;html=1;rounded=0;" edge="1" parent="1" source="6C0aV0hPVjWZgqlC1LB1-8" target="Ele08riBsFVVtndWp5Yc-11">
          <mxGeometry width="160" relative="1" as="geometry">
            <mxPoint x="320" y="270" as="sourcePoint" />
            <mxPoint x="480" y="270" as="targetPoint" />
          </mxGeometry>
        </mxCell>
        <mxCell id="6C0aV0hPVjWZgqlC1LB1-8" value="CartÃ£o" style="ellipse;whiteSpace=wrap;html=1;" vertex="1" parent="1">
          <mxGeometry x="430" y="90" width="120" height="80" as="geometry" />
        </mxCell>
        <mxCell id="6C0aV0hPVjWZgqlC1LB1-9" value="Boleto" style="ellipse;whiteSpace=wrap;html=1;" vertex="1" parent="1">
          <mxGeometry x="460" y="260" width="120" height="80" as="geometry" />
        </mxCell>
        <mxCell id="6C0aV0hPVjWZgqlC1LB1-11" value="Extends" style="endArrow=block;endSize=16;endFill=0;html=1;rounded=0;" edge="1" parent="1" source="6C0aV0hPVjWZgqlC1LB1-9" target="Ele08riBsFVVtndWp5Yc-11">
          <mxGeometry width="160" relative="1" as="geometry">
            <mxPoint x="190" y="490" as="sourcePoint" />
            <mxPoint x="350" y="490" as="targetPoint" />
          </mxGeometry>
        </mxCell>
        <mxCell id="6C0aV0hPVjWZgqlC1LB1-12" value="Login" style="ellipse;whiteSpace=wrap;html=1;" vertex="1" parent="1">
          <mxGeometry y="320" width="120" height="80" as="geometry" />
        </mxCell>
        <mxCell id="6C0aV0hPVjWZgqlC1LB1-16" value="&amp;lt;&amp;lt;include&amp;gt;&amp;gt;" style="html=1;verticalAlign=bottom;labelBackgroundColor=none;endArrow=open;endFill=0;dashed=1;rounded=0;" edge="1" parent="1" source="6C0aV0hPVjWZgqlC1LB1-12" target="6C0aV0hPVjWZgqlC1LB1-5">
          <mxGeometry width="160" relative="1" as="geometry">
            <mxPoint x="20" y="470" as="sourcePoint" />
            <mxPoint x="180" y="470" as="targetPoint" />
          </mxGeometry>
        </mxCell>
        <mxCell id="6C0aV0hPVjWZgqlC1LB1-17" value="&amp;lt;&amp;lt;extend&amp;gt;&amp;gt;" style="html=1;verticalAlign=bottom;labelBackgroundColor=none;endArrow=open;endFill=0;dashed=1;rounded=0;" edge="1" parent="1" source="6C0aV0hPVjWZgqlC1LB1-12" target="Ele08riBsFVVtndWp5Yc-11">
          <mxGeometry width="160" relative="1" as="geometry">
            <mxPoint x="70" y="280" as="sourcePoint" />
            <mxPoint x="230" y="280" as="targetPoint" />
          </mxGeometry>
        </mxCell>
      </root>
    </mxGraphModel>
  </diagram>
</mxfile>
